# xmcd
#
# Track frame offsets:
#	180
#	13505
#	29030
#	39380
#	55760
#	68345
#	81925
#	94990
#	111745
#	123800
#	138950
#	151035
#
# Disc length: 2167 seconds
#
# Revision: 1
# Processed by: cddbd v1.5.2PL0 Copyright (c) Steve Scherf et al.
# Submitted via: audiograbber 1.83.01
#
DISCID=9508750c
DTITLE=Chrystian e Ralf - Quebradas da Noite
DYEAR=1995
DGENRE=Sertanejo
TTITLE0=Quebradas da noite
TTITLE1=Boiada
TTITLE2=Despertar nativo
TTITLE3=A lenda do caipora
TTITLE4=Casa de esquina
TTITLE5=Berrante de Madalena
TTITLE6=Pagode em Brasília
TTITLE7=Poeira
TTITLE8=O futuro é uma incerteza
TTITLE9=Peão da cidade
TTITLE10=O drama de um boiadeiro
TTITLE11=Gamei por você
EXTD=
EXTT0=
EXTT1=
EXTT2=
EXTT3=
EXTT4=
EXTT5=
EXTT6=
EXTT7=
EXTT8=
EXTT9=
EXTT10=
EXTT11=
PLAYORDER=
